<svg width="32" height="32" viewBox="0 0 32 32" fill="none" xmlns="http://www.w3.org/2000/svg">
<mask id="mask0_127607_77" style="mask-type:alpha" maskUnits="userSpaceOnUse" x="0" y="0" width="32" height="32">
<rect width="32" height="32" fill="#D9D9D9"/>
</mask>
<g mask="url(#mask0_127607_77)">
<path d="M10.4333 17.3333L16.9667 23.8667C17.2333 24.1333 17.3611 24.4444 17.35 24.8C17.3389 25.1555 17.2 25.4667 16.9333 25.7333C16.6667 25.9778 16.3555 26.1055 16 26.1167C15.6444 26.1278 15.3333 26 15.0667 25.7333L6.26666 16.9333C6.13333 16.8 6.03888 16.6555 5.98333 16.5C5.92777 16.3444 5.89999 16.1778 5.89999 16C5.89999 15.8222 5.92777 15.6555 5.98333 15.5C6.03888 15.3444 6.13333 15.2 6.26666 15.0667L15.0667 6.26666C15.3111 6.02222 15.6167 5.89999 15.9833 5.89999C16.35 5.89999 16.6667 6.02222 16.9333 6.26666C17.2 6.53333 17.3333 6.84999 17.3333 7.21666C17.3333 7.58333 17.2 7.89999 16.9333 8.16666L10.4333 14.6667H25.3333C25.7111 14.6667 26.0278 14.7944 26.2833 15.05C26.5389 15.3055 26.6667 15.6222 26.6667 16C26.6667 16.3778 26.5389 16.6944 26.2833 16.95C26.0278 17.2055 25.7111 17.3333 25.3333 17.3333H10.4333Z" fill="#70E61C"/>
</g>
</svg>
